<?xml version="1.0" encoding="UTF-8"?>
<svg id="Capa_2" data-name="Capa 2" xmlns="http://www.w3.org/2000/svg" xmlns:xlink="http://www.w3.org/1999/xlink" viewBox="0 0 743.3 162.2">
  <defs>
    <style>
      .cls-1 {
        fill: #fff;
      }

      .cls-2 {
        clip-rule: evenodd;
      }

      .cls-2, .cls-3 {
        fill: url(#Degradado_sin_nombre_8);
      }

      .cls-4 {
        fill: url(#Degradado_sin_nombre_8-2);
      }

      .cls-5 {
        clip-path: url(#clippath);
      }

      .cls-3 {
        fill-rule: evenodd;
      }
    </style>
    <linearGradient id="Degradado_sin_nombre_8" data-name="Degradado sin nombre 8" x1="0" y1="81.1" x2="162.2" y2="81.1" gradientUnits="userSpaceOnUse">
      <stop offset="0" stop-color="#f63767"/>
      <stop offset="1" stop-color="#7f0e81"/>
    </linearGradient>
    <clipPath id="clippath">
      <path class="cls-2" d="M86,74.2h-13.03v23.98c0,2,.5,3.46,1.5,4.38,1,.92,2.46,1.44,4.38,1.56,1.92.12,4.3.1,7.15-.06v13.49c-10.22,1.15-17.43.19-21.62-2.88-4.19-3.07-6.28-8.57-6.28-16.49v-53.15h-14.87v14.87h42.78v14.3h0ZM91.47,59.9h14.87v58.12h-14.87v-58.12ZM135.64,11.06c10.34,0,18.72,8.38,18.72,18.72s-8.38,18.72-18.72,18.72-18.72-8.38-18.72-18.72c0-2.31.42-4.53,1.19-6.58-3.1-1.99-6.37-3.74-9.78-5.21-8.31-3.59-17.51-5.58-27.24-5.58-18.97,0-36.14,7.69-48.57,20.12-12.43,12.43-20.12,29.6-20.12,48.57h0c0,2.45.13,4.87.38,7.25h0c.72,6.82,2.43,13.35,5,19.43-4.06,1.43-7.66,3.84-10.51,6.95-3.72-8.16-6.13-17.04-6.96-26.38H.32c-.21-2.39-.32-4.81-.32-7.25h0c0-22.39,9.08-42.67,23.75-57.34C38.43,9.08,58.7,0,81.1,0c11.37,0,22.24,2.37,32.13,6.65,4.53,1.96,8.84,4.31,12.89,7.02,2.79-1.65,6.04-2.6,9.52-2.6h0ZM124.94,28.2s-.01.09-.02.14c0,.04-.01.08-.02.12,0,.05-.01.11-.02.16,0,.03,0,.06,0,.09,0,.07-.01.13-.02.2v.06c-.01.08-.02.16-.02.23v.03c0,.09,0,.17-.01.26h0c0,.1,0,.19,0,.29,0,5.98,4.85,10.82,10.82,10.82s10.82-4.85,10.82-10.82-4.85-10.82-10.82-10.82c-.09,0-.19,0-.28,0h0c-.09,0-.18,0-.27.01h0s0,0,0,0c-.09,0-.18.01-.27.02h0c-.09,0-.18.01-.26.02h-.02c-.08.01-.17.02-.25.03h-.02c-.08.01-.16.02-.24.04h-.03c-.08.02-.16.03-.24.04h-.03c-.08.02-.16.03-.24.05-4.43.9-7.88,4.51-8.54,9.03h0ZM26.42,113.56c10.34,0,18.72,8.38,18.72,18.72,0,2.33-.43,4.57-1.21,6.63,3.12,2.01,6.41,3.77,9.84,5.26,8.33,3.61,17.57,5.62,27.32,5.62,18.97,0,36.14-7.69,48.57-20.12,12.43-12.43,20.12-29.6,20.12-48.57h12.42c0,22.39-9.08,42.67-23.75,57.34-14.68,14.68-34.95,23.75-57.34,23.75-11.41,0-22.3-2.38-32.22-6.68-4.55-1.97-8.89-4.36-12.97-7.1-2.78,1.64-6.03,2.58-9.49,2.58-10.34,0-18.72-8.38-18.72-18.72s8.38-18.72,18.72-18.72h0ZM37.12,133.9c.01-.08.02-.15.03-.23v-.04c.01-.08.02-.15.03-.23v-.04c.01-.08.02-.16.03-.25v-.02c0-.09.01-.17.02-.26h0c0-.1,0-.19.01-.28h0c0-.1,0-.19,0-.28,0-5.98-4.85-10.82-10.82-10.82s-10.82,4.85-10.82,10.82,4.85,10.82,10.82,10.82c.09,0,.18,0,.28,0h0s0,0,0,0h0c.09,0,.18,0,.27-.01h0c.09,0,.18-.01.27-.02h0c.09,0,.18-.02.27-.02h0s0,0,0,0c.09,0,.18-.02.27-.03h0s0,0,0,0c.09-.01.18-.02.26-.04h0s0,0,0,0h0c.09-.01.17-.03.26-.04h0s0,0,0,0c.09-.02.17-.03.26-.05,4.41-.9,7.85-4.49,8.53-8.98h0ZM161.88,73.85h-12.48c.25,2.38.38,4.8.38,7.25h12.42c0-2.44-.11-4.86-.32-7.25h0ZM144.34,54.26c2.6,6.12,4.34,12.7,5.06,19.59h12.48c-.83-9.41-3.27-18.36-7.05-26.57-2.84,3.12-6.44,5.54-10.49,6.98h0Z"/>
    </clipPath>
    <linearGradient id="Degradado_sin_nombre_8-2" data-name="Degradado sin nombre 8" x1="-85.76" y1="81.1" x2="220.9" y2="81.1" xlink:href="#Degradado_sin_nombre_8"/>
  </defs>
  <g id="Capa_1-2" data-name="Capa 1">
    <g>
      <path class="cls-3" d="M86,74.2h-13.03v23.98c0,2,.5,3.46,1.5,4.38,1,.92,2.46,1.44,4.38,1.56,1.92.12,4.3.1,7.15-.06v13.49c-10.22,1.15-17.43.19-21.62-2.88-4.19-3.07-6.28-8.57-6.28-16.49v-53.15h-14.87v14.87h42.78v14.3h0ZM91.47,59.9h14.87v58.12h-14.87v-58.12ZM135.64,11.06c10.34,0,18.72,8.38,18.72,18.72s-8.38,18.72-18.72,18.72-18.72-8.38-18.72-18.72c0-2.31.42-4.53,1.19-6.58-3.1-1.99-6.37-3.74-9.78-5.21-8.31-3.59-17.51-5.58-27.24-5.58-18.97,0-36.14,7.69-48.57,20.12-12.43,12.43-20.12,29.6-20.12,48.57h0c0,2.45.13,4.87.38,7.25h0c.72,6.82,2.43,13.35,5,19.43-4.06,1.43-7.66,3.84-10.51,6.95-3.72-8.16-6.13-17.04-6.96-26.38H.32c-.21-2.39-.32-4.81-.32-7.25h0c0-22.39,9.08-42.67,23.75-57.34C38.43,9.08,58.7,0,81.1,0c11.37,0,22.24,2.37,32.13,6.65,4.53,1.96,8.84,4.31,12.89,7.02,2.79-1.65,6.04-2.6,9.52-2.6h0ZM124.94,28.2s-.01.09-.02.14c0,.04-.01.08-.02.12,0,.05-.01.11-.02.16,0,.03,0,.06,0,.09,0,.07-.01.13-.02.2v.06c-.01.08-.02.16-.02.23v.03c0,.09,0,.17-.01.26h0c0,.1,0,.19,0,.29,0,5.98,4.85,10.82,10.82,10.82s10.82-4.85,10.82-10.82-4.85-10.82-10.82-10.82c-.09,0-.19,0-.28,0h0c-.09,0-.18,0-.27.01h0s0,0,0,0c-.09,0-.18.01-.27.02h0c-.09,0-.18.01-.26.02h-.02c-.08.01-.17.02-.25.03h-.02c-.08.01-.16.02-.24.04h-.03c-.08.02-.16.03-.24.04h-.03c-.08.02-.16.03-.24.05-4.43.9-7.88,4.51-8.54,9.03h0ZM26.42,113.56c10.34,0,18.72,8.38,18.72,18.72,0,2.33-.43,4.57-1.21,6.63,3.12,2.01,6.41,3.77,9.84,5.26,8.33,3.61,17.57,5.62,27.32,5.62,18.97,0,36.14-7.69,48.57-20.12,12.43-12.43,20.12-29.6,20.12-48.57h12.42c0,22.39-9.08,42.67-23.75,57.34-14.68,14.68-34.95,23.75-57.34,23.75-11.41,0-22.3-2.38-32.22-6.68-4.55-1.97-8.89-4.36-12.97-7.1-2.78,1.64-6.03,2.58-9.49,2.58-10.34,0-18.72-8.38-18.72-18.72s8.38-18.72,18.72-18.72h0ZM37.12,133.9c.01-.08.02-.15.03-.23v-.04c.01-.08.02-.15.03-.23v-.04c.01-.08.02-.16.03-.25v-.02c0-.09.01-.17.02-.26h0c0-.1,0-.19.01-.28h0c0-.1,0-.19,0-.28,0-5.98-4.85-10.82-10.82-10.82s-10.82,4.85-10.82,10.82,4.85,10.82,10.82,10.82c.09,0,.18,0,.28,0h0s0,0,0,0h0c.09,0,.18,0,.27-.01h0c.09,0,.18-.01.27-.02h0c.09,0,.18-.02.27-.02h0s0,0,0,0c.09,0,.18-.02.27-.03h0s0,0,0,0c.09-.01.18-.02.26-.04h0s0,0,0,0h0c.09-.01.17-.03.26-.04h0s0,0,0,0c.09-.02.17-.03.26-.05,4.41-.9,7.85-4.49,8.53-8.98h0ZM161.88,73.85h-12.48c.25,2.38.38,4.8.38,7.25h12.42c0-2.44-.11-4.86-.32-7.25h0ZM144.34,54.26c2.6,6.12,4.34,12.7,5.06,19.59h12.48c-.83-9.41-3.27-18.36-7.05-26.57-2.84,3.12-6.44,5.54-10.49,6.98h0Z"/>
      <g class="cls-5">
        <rect class="cls-4" x="-85.76" y="-72.23" width="306.66" height="306.66"/>
      </g>
    </g>
    <path class="cls-1" d="M223.08,108.44c-2.97,0-5.78-.43-8.41-1.29-2.63-.86-4.95-2.05-6.96-3.56-2.01-1.51-3.6-3.28-4.77-5.32-1.17-2.03-1.79-4.25-1.84-6.65h6.26c0,1.51.42,2.89,1.25,4.15.83,1.25,1.98,2.33,3.44,3.25,1.46.91,3.15,1.63,5.08,2.15,1.93.52,4.01.78,6.26.78,2.45,0,4.71-.16,6.77-.47,2.06-.31,3.83-.81,5.32-1.49,1.49-.68,2.63-1.58,3.44-2.7.81-1.12,1.21-2.46,1.21-4.03,0-1.82-.54-3.3-1.6-4.42-1.07-1.12-2.48-2.03-4.22-2.74-1.75-.7-3.74-1.25-5.98-1.64-2.24-.39-4.54-.79-6.88-1.21-2.35-.42-4.64-.91-6.88-1.49-2.24-.57-4.24-1.37-5.98-2.39-1.75-1.02-3.16-2.35-4.22-3.99-1.07-1.64-1.6-3.71-1.6-6.22s.59-4.93,1.76-6.96c1.17-2.03,2.75-3.75,4.73-5.16,1.98-1.41,4.33-2.48,7.04-3.21,2.71-.73,5.58-1.09,8.6-1.09s5.74.43,8.29,1.29c2.55.86,4.78,2.05,6.69,3.56,1.9,1.51,3.4,3.29,4.5,5.32,1.09,2.03,1.67,4.25,1.72,6.65h-6.26c0-1.51-.38-2.89-1.13-4.14-.76-1.25-1.81-2.33-3.17-3.25-1.36-.91-2.96-1.63-4.81-2.15-1.85-.52-3.9-.78-6.14-.78s-4.22.22-6.1.67c-1.88.44-3.49,1.08-4.85,1.92-1.36.83-2.42,1.83-3.21,2.97-.78,1.15-1.17,2.42-1.17,3.83,0,1.67.53,3,1.6,3.99,1.07.99,2.48,1.8,4.22,2.42,1.75.63,3.74,1.12,5.98,1.49,2.24.37,4.54.76,6.88,1.17,2.35.42,4.64.94,6.88,1.56,2.24.63,4.24,1.47,5.98,2.54,1.75,1.07,3.15,2.45,4.22,4.14,1.07,1.7,1.6,3.85,1.6,6.45,0,2.76-.61,5.15-1.84,7.16-1.23,2.01-2.91,3.68-5.05,5.01-2.14,1.33-4.63,2.31-7.47,2.93-2.84.62-5.91.94-9.19.94Z"/>
    <path class="cls-1" d="M305.99,69.6c-1.36-3.47-3.25-6.45-5.67-8.96-2.42-2.5-5.32-4.45-8.68-5.83-3.36-1.38-7.08-2.07-11.15-2.07s-7.8.69-11.19,2.07c-3.39,1.38-6.3,3.32-8.72,5.83-2.42,2.5-4.32,5.49-5.67,8.96-1.36,3.47-2.03,7.29-2.03,11.46s.68,8.01,2.03,11.5c1.36,3.49,3.25,6.49,5.67,9,2.42,2.5,5.33,4.45,8.72,5.83,3.39,1.38,7.12,2.07,11.19,2.07s7.78-.69,11.15-2.07c3.36-1.38,6.26-3.32,8.68-5.83,2.42-2.5,4.31-5.5,5.67-9,1.36-3.49,2.03-7.33,2.03-11.5s-.68-7.99-2.03-11.46ZM300,90.01c-1.02,2.69-2.45,4.98-4.3,6.88-1.85,1.9-4.05,3.39-6.61,4.46-2.56,1.07-5.4,1.6-8.53,1.6s-6-.53-8.6-1.6c-2.61-1.07-4.85-2.55-6.73-4.46-1.88-1.9-3.32-4.2-4.34-6.88-1.02-2.69-1.53-5.64-1.53-8.88s.51-6.19,1.53-8.88c1.02-2.69,2.46-4.99,4.34-6.92,1.88-1.93,4.11-3.43,6.69-4.5,2.58-1.07,5.44-1.6,8.56-1.6s5.98.54,8.57,1.6c2.58,1.07,4.8,2.57,6.65,4.5,1.85,1.93,3.29,4.24,4.3,6.92,1.02,2.69,1.53,5.64,1.53,8.88s-.51,6.19-1.53,8.88Z"/>
    <polygon class="cls-1" points="314.28 53.68 320.54 53.68 320.54 102.18 347.84 102.18 347.84 108.44 314.28 108.44 314.28 53.68"/>
    <path class="cls-1" d="M354.17,84.89l-.08-31.21h6.26l.08,31.29c.05,6.31,1.13,10.87,3.25,13.69,2.11,2.82,5.54,4.22,10.29,4.22,2.71,0,4.99-.29,6.84-.86,1.85-.57,3.34-1.55,4.46-2.93,1.12-1.38,1.92-3.22,2.39-5.51.47-2.29.7-5.16.7-8.6l.08-31.13h6.26l-.08,31.05c0,4.28-.38,7.97-1.13,11.07-.76,3.1-1.93,5.64-3.52,7.63-1.59,1.98-3.64,3.44-6.14,4.38-2.5.94-5.48,1.41-8.92,1.41-4.07,0-7.43-.57-10.09-1.72-2.66-1.15-4.77-2.79-6.34-4.93-1.56-2.14-2.67-4.72-3.32-7.74-.65-3.02-.98-6.39-.98-10.09Z"/>
    <path class="cls-1" d="M429.49,52.74c3.39,0,6.48.43,9.27,1.29,2.79.86,5.2,2.07,7.24,3.64,2.03,1.56,3.62,3.44,4.77,5.63,1.15,2.19,1.75,4.59,1.8,7.2h-6.26c0-1.62-.4-3.11-1.21-4.5-.81-1.38-1.94-2.57-3.4-3.56-1.46-.99-3.2-1.77-5.2-2.35-2.01-.57-4.18-.86-6.53-.86-13.92,0-20.88,7.46-20.88,22.37,0,3.75.42,6.97,1.25,9.66.83,2.69,2.12,4.9,3.87,6.65,1.75,1.75,3.98,3.03,6.69,3.83,2.71.81,5.97,1.21,9.78,1.21,2.19,0,4.24-.29,6.14-.86,1.9-.57,3.56-1.37,4.97-2.39,1.41-1.02,2.51-2.19,3.32-3.52.81-1.33,1.21-2.78,1.21-4.34h6.26c-.05,2.45-.61,4.75-1.68,6.88-1.07,2.14-2.58,4-4.54,5.59-1.96,1.59-4.29,2.84-7,3.75-2.71.91-5.76,1.37-9.15,1.37-18.41,0-27.61-9.36-27.61-28.08,0-9.33,2.29-16.44,6.88-21.31,4.59-4.88,11.26-7.31,20.02-7.31Z"/>
    <rect class="cls-1" x="460.39" y="53.68" width="6.26" height="54.75"/>
    <path class="cls-1" d="M526.02,69.6c-1.36-3.47-3.25-6.45-5.67-8.96-2.42-2.5-5.32-4.45-8.68-5.83-3.36-1.38-7.08-2.07-11.15-2.07s-7.8.69-11.19,2.07c-3.39,1.38-6.3,3.32-8.72,5.83-2.42,2.5-4.32,5.49-5.67,8.96-1.36,3.47-2.03,7.29-2.03,11.46s.68,8.01,2.03,11.5c1.35,3.49,3.25,6.49,5.67,9,2.42,2.5,5.33,4.45,8.72,5.83,3.39,1.38,7.12,2.07,11.19,2.07s7.78-.69,11.15-2.07c3.36-1.38,6.26-3.32,8.68-5.83,2.42-2.5,4.31-5.5,5.67-9,1.36-3.49,2.03-7.33,2.03-11.5s-.68-7.99-2.03-11.46ZM520.03,90.01c-1.02,2.69-2.45,4.98-4.3,6.88-1.85,1.9-4.05,3.39-6.61,4.46-2.56,1.07-5.4,1.6-8.53,1.6s-6-.53-8.6-1.6c-2.61-1.07-4.85-2.55-6.73-4.46-1.88-1.9-3.32-4.2-4.34-6.88-1.02-2.69-1.53-5.64-1.53-8.88s.51-6.19,1.53-8.88c1.02-2.69,2.46-4.99,4.34-6.92,1.88-1.93,4.11-3.43,6.69-4.5,2.58-1.07,5.44-1.6,8.57-1.6s5.98.54,8.56,1.6c2.58,1.07,4.8,2.57,6.65,4.5,1.85,1.93,3.29,4.24,4.3,6.92,1.02,2.69,1.53,5.64,1.53,8.88s-.51,6.19-1.53,8.88Z"/>
    <polygon class="cls-1" points="534.31 53.68 543.77 53.68 563.56 99.36 563.56 53.68 569.82 53.68 569.82 108.44 560.43 108.44 540.56 62.52 540.56 108.44 534.31 108.44 534.31 53.68"/>
    <rect class="cls-1" x="577.64" y="53.68" width="35.12" height="6.26"/>
    <polygon class="cls-1" points="577.64 77.93 604.94 77.93 604.94 84.19 583.9 84.19 583.9 102.18 612.76 102.18 612.76 108.44 577.64 108.44 577.64 77.93"/>
    <path class="cls-1" d="M640.99,108.44c-2.97,0-5.78-.43-8.41-1.29-2.63-.86-4.95-2.05-6.96-3.56-2.01-1.51-3.6-3.28-4.77-5.32-1.17-2.03-1.79-4.25-1.84-6.65h6.26c0,1.51.42,2.89,1.25,4.15.83,1.25,1.98,2.33,3.44,3.25,1.46.91,3.15,1.63,5.08,2.15,1.93.52,4.01.78,6.26.78,2.45,0,4.71-.16,6.77-.47,2.06-.31,3.83-.81,5.32-1.49,1.49-.68,2.63-1.58,3.44-2.7.81-1.12,1.21-2.46,1.21-4.03,0-1.82-.54-3.3-1.6-4.42-1.07-1.12-2.48-2.03-4.22-2.74-1.75-.7-3.74-1.25-5.98-1.64-2.24-.39-4.54-.79-6.88-1.21-2.35-.42-4.64-.91-6.88-1.49-2.24-.57-4.24-1.37-5.98-2.39-1.75-1.02-3.16-2.35-4.22-3.99-1.07-1.64-1.6-3.71-1.6-6.22s.59-4.93,1.76-6.96c1.17-2.03,2.75-3.75,4.73-5.16,1.98-1.41,4.33-2.48,7.04-3.21,2.71-.73,5.58-1.09,8.6-1.09s5.74.43,8.29,1.29c2.55.86,4.78,2.05,6.69,3.56,1.9,1.51,3.4,3.29,4.5,5.32,1.1,2.03,1.67,4.25,1.72,6.65h-6.26c0-1.51-.38-2.89-1.13-4.14-.76-1.25-1.81-2.33-3.17-3.25-1.36-.91-2.96-1.63-4.81-2.15-1.85-.52-3.9-.78-6.14-.78s-4.22.22-6.1.67c-1.88.44-3.49,1.08-4.85,1.92-1.36.83-2.42,1.83-3.21,2.97-.78,1.15-1.17,2.42-1.17,3.83,0,1.67.53,3,1.6,3.99,1.07.99,2.48,1.8,4.22,2.42,1.75.63,3.74,1.12,5.98,1.49,2.24.37,4.54.76,6.88,1.17,2.35.42,4.64.94,6.88,1.56,2.24.63,4.24,1.47,5.98,2.54,1.75,1.07,3.15,2.45,4.22,4.14,1.07,1.7,1.6,3.85,1.6,6.45,0,2.76-.61,5.15-1.84,7.16-1.23,2.01-2.91,3.68-5.04,5.01-2.14,1.33-4.63,2.31-7.47,2.93-2.84.62-5.91.94-9.19.94Z"/>
    <polygon class="cls-1" points="707.48 59.94 690.35 59.94 690.35 53.68 730.79 53.68 730.79 59.94 713.74 59.94 713.74 108.44 707.48 108.44 707.48 59.94"/>
    <rect class="cls-1" x="737.05" y="53.68" width="6.26" height="54.75"/>
  </g>
</svg>